<?xml version="1.0" standalone="no"?>
<!DOCTYPE svg PUBLIC "-//W3C//DTD SVG 20010904//EN"
 "http://www.w3.org/TR/2001/REC-SVG-20010904/DTD/svg10.dtd">
<svg version="1.0" xmlns="http://www.w3.org/2000/svg"
 width="16.000000pt" height="16.000000pt" viewBox="0 0 16.000000 16.000000"
 preserveAspectRatio="xMidYMid meet">
<metadata>
Created by potrace 1.11, written by Peter Selinger 2001-2013
</metadata>
<g transform="translate(0.000000,16.000000) scale(0.002286,-0.002286)"
fill="#000000" stroke="none">
<path d="M3298 6995 c-1 -1 -41 -5 -88 -9 -100 -7 -225 -22 -295 -36 -27 -5
-61 -12 -75 -14 -191 -35 -488 -121 -627 -182 -18 -8 -48 -21 -67 -29 -19 -8
-37 -15 -41 -15 -16 0 -302 -150 -413 -216 -136 -83 -324 -215 -403 -284 -10
-8 -42 -35 -73 -60 -54 -44 -300 -289 -364 -362 -369 -424 -640 -964 -768
-1533 -31 -135 -60 -327 -72 -465 -9 -111 -8 -504 1 -600 48 -462 159 -853
358 -1252 38 -76 80 -156 94 -178 14 -22 25 -42 25 -45 0 -22 242 -359 344
-480 55 -64 308 -321 366 -371 145 -124 390 -302 520 -377 157 -91 376 -197
520 -252 236 -91 590 -182 782 -201 35 -3 66 -8 69 -9 15 -10 227 -20 409 -20
187 0 339 7 430 21 358 53 613 121 900 238 275 113 573 284 786 451 28 22 68
54 90 70 87 67 253 224 354 332 534 576 861 1312 928 2088 14 164 7 569 -13
705 -3 19 -7 56 -10 81 -3 25 -7 54 -9 65 -2 10 -11 60 -21 109 -154 823 -638
1603 -1315 2117 -106 80 -296 208 -310 208 -5 0 -10 5 -10 10 0 6 -5 10 -10
10 -6 0 -29 12 -52 26 -127 80 -445 222 -643 287 -263 85 -406 116 -765 163
-47 6 -526 15 -532 9z m397 -370 c55 -3 114 -7 130 -9 17 -2 55 -7 86 -10 31
-4 65 -8 75 -10 11 -2 39 -7 64 -11 25 -4 110 -23 190 -42 709 -171 1333 -586
1774 -1178 197 -264 329 -513 444 -835 39 -108 104 -343 117 -420 3 -19 7 -46
10 -60 7 -40 14 -82 20 -127 3 -24 7 -61 10 -82 11 -86 15 -183 16 -341 0
-174 -2 -213 -26 -420 -6 -54 -17 -125 -20 -130 -2 -3 -6 -25 -10 -50 -4 -25
-8 -47 -10 -51 -2 -3 -7 -21 -10 -40 -31 -181 -138 -477 -256 -712 -353 -704
-967 -1257 -1699 -1530 -91 -34 -304 -101 -352 -111 -137 -29 -283 -56 -328
-61 -30 -3 -66 -8 -80 -10 -106 -16 -448 -22 -566 -10 -32 3 -84 8 -114 11
-87 9 -121 13 -175 24 -27 5 -67 12 -89 15 -21 3 -42 7 -46 10 -3 2 -22 7 -41
10 -153 26 -454 130 -654 226 -768 368 -1360 1038 -1628 1840 -32 96 -87 305
-102 384 -30 172 -39 234 -51 385 -6 74 -6 410 0 455 2 17 7 59 11 95 3 36 8
76 10 90 12 93 18 126 20 130 2 3 6 26 10 50 11 72 71 297 109 405 55 157 63
178 107 276 241 535 638 1003 1124 1326 270 179 550 310 862 403 111 33 364
86 456 95 32 4 68 8 80 11 12 2 83 7 157 10 74 4 136 7 137 8 3 2 129 -2 238
-9z"/>
<path d="M1428 5062 c-33 -4 -68 -45 -68 -80 0 -14 18 -87 40 -161 119 -399
164 -550 220 -741 28 -96 60 -202 70 -235 10 -33 46 -154 80 -270 105 -354
225 -758 285 -960 40 -133 112 -375 134 -451 24 -80 58 -126 111 -148 43 -17
374 -21 435 -5 55 15 108 72 129 139 9 30 37 116 61 190 42 132 127 399 187
590 16 52 32 102 35 110 4 8 7 17 8 20 0 3 5 16 9 30 4 14 37 117 72 230 36
113 73 230 84 260 10 30 37 116 60 190 40 128 110 342 115 348 2 2 59 -161 84
-243 32 -101 135 -427 148 -465 8 -25 28 -85 43 -135 41 -129 87 -277 175
-550 42 -132 103 -325 137 -430 92 -291 89 -288 371 -292 208 -4 256 3 301 38
44 35 57 68 156 419 10 36 179 612 374 1280 196 668 356 1229 356 1246 0 20
-9 39 -26 55 l-25 24 -258 0 -258 0 -41 -28 c-63 -41 -53 -13 -196 -567 -42
-164 -133 -523 -142 -559 -2 -9 -20 -79 -40 -156 -20 -77 -37 -147 -39 -155
-2 -8 -29 -112 -60 -230 -31 -118 -58 -225 -61 -237 -2 -12 -9 -35 -15 -50
l-11 -28 -15 40 c-8 22 -84 261 -169 530 -85 270 -178 562 -205 650 -28 88
-66 207 -84 265 -19 58 -57 178 -85 268 -81 257 -85 259 -411 257 -205 -1
-217 -2 -252 -24 -20 -12 -46 -34 -57 -48 -11 -14 -74 -193 -141 -397 -66
-204 -156 -479 -199 -611 -43 -132 -102 -312 -130 -400 -61 -188 -139 -419
-152 -455 l-10 -25 -9 22 c-6 17 -328 1299 -344 1373 -2 8 -29 118 -61 243
-83 335 -64 320 -429 321 -143 1 -272 0 -287 -2z"/>
</g>
</svg>
