<?xml version="1.0" standalone="no"?>
<!DOCTYPE svg PUBLIC "-//W3C//DTD SVG 20010904//EN"
 "http://www.w3.org/TR/2001/REC-SVG-20010904/DTD/svg10.dtd">
<svg version="1.0" xmlns="http://www.w3.org/2000/svg"
 width="16.000000pt" height="16.000000pt" viewBox="0 0 16.000000 16.000000"
 preserveAspectRatio="xMidYMid meet">
<metadata>
Created by potrace 1.11, written by Peter Selinger 2001-2013
</metadata>
<g transform="translate(0.000000,16.000000) scale(0.002286,-0.002286)"
fill="#000000" stroke="none">
<path d="M3298 6995 c-2 -2 -43 -6 -93 -9 -115 -9 -325 -38 -395 -56 -19 -5
-53 -12 -75 -16 -22 -3 -43 -8 -48 -11 -4 -2 -20 -6 -35 -9 -149 -25 -493
-154 -727 -272 -528 -266 -972 -652 -1307 -1138 -345 -500 -559 -1106 -605
-1711 -10 -124 -9 -453 0 -558 63 -675 294 -1287 681 -1805 379 -507 869 -889
1471 -1145 203 -87 564 -189 770 -219 248 -36 322 -41 565 -41 184 1 370 9
410 20 8 2 38 6 65 10 79 9 224 35 290 51 33 8 71 17 85 20 46 9 254 73 335
103 640 234 1174 624 1591 1161 226 293 414 645 538 1010 54 159 110 379 130
505 32 203 34 221 43 350 13 177 6 549 -11 655 -2 14 -8 52 -12 85 -4 33 -8
62 -9 65 0 3 -4 27 -9 53 -4 27 -9 59 -12 70 -2 12 -6 34 -9 49 -55 301 -206
702 -385 1023 -82 149 -280 427 -389 550 -61 68 -165 178 -196 208 -443 426
-918 704 -1485 868 -205 59 -380 93 -640 124 -54 7 -526 15 -532 10z m-1223
-1655 c120 -30 224 -102 291 -200 53 -76 72 -131 99 -268 2 -13 6 -31 9 -40 3
-9 7 -29 10 -44 3 -15 12 -63 20 -105 9 -43 18 -87 20 -98 2 -11 23 -112 46
-225 23 -113 43 -212 45 -220 2 -8 10 -49 18 -90 9 -41 18 -86 21 -100 3 -14
8 -36 11 -50 3 -14 7 -36 10 -50 2 -14 14 -70 25 -125 11 -55 23 -113 26 -130
2 -16 7 -37 9 -45 2 -8 7 -28 10 -45 26 -149 42 -208 49 -190 28 71 103 276
133 360 64 186 164 450 189 502 55 110 175 197 314 227 84 18 363 18 444 -1
115 -26 215 -102 296 -224 60 -91 93 -168 160 -379 124 -390 134 -420 141
-412 3 4 12 34 18 67 7 33 14 69 17 80 2 11 7 34 10 50 2 17 10 48 16 70 5 22
12 51 15 65 2 14 13 66 24 115 15 68 109 507 134 625 40 189 57 270 61 290 15
80 57 218 76 249 50 81 135 141 234 164 143 34 344 -12 439 -100 122 -111 151
-239 110 -473 -15 -86 -94 -484 -130 -652 -18 -85 -184 -909 -188 -933 -3 -16
-10 -50 -16 -75 -5 -25 -13 -61 -16 -80 -3 -19 -19 -100 -35 -179 -17 -79 -33
-158 -36 -175 -3 -17 -14 -74 -24 -126 -11 -52 -33 -169 -50 -260 -35 -187
-69 -272 -142 -352 -75 -83 -211 -148 -343 -165 -107 -14 -254 -7 -330 15
-126 38 -252 150 -309 274 -18 40 -102 282 -187 538 -84 256 -155 469 -159
473 -4 4 -15 -14 -25 -40 -10 -26 -26 -66 -36 -88 -10 -22 -96 -229 -192 -460
-229 -549 -218 -526 -269 -568 -85 -70 -175 -105 -321 -126 -163 -23 -424 11
-544 71 -77 38 -166 140 -211 238 -26 59 -59 167 -67 222 -4 23 -13 72 -22
108 -8 36 -17 76 -20 90 -2 14 -9 45 -14 70 -11 45 -15 66 -23 105 -14 66 -68
316 -76 350 -17 71 -59 269 -65 305 -3 19 -10 51 -15 70 -6 19 -32 139 -59
265 -28 127 -73 334 -100 460 -27 127 -52 241 -55 255 -2 14 -25 108 -51 210
-68 272 -83 442 -54 590 36 181 164 299 359 329 65 11 217 5 275 -9z"/>
<path d="M1793 5254 c-186 -38 -272 -156 -274 -375 -1 -120 15 -222 66 -429
41 -163 92 -393 131 -580 9 -41 18 -84 21 -95 2 -11 6 -29 8 -40 3 -11 23
-103 45 -205 22 -102 67 -311 100 -465 33 -154 65 -298 70 -320 10 -43 39
-177 46 -210 2 -11 17 -81 33 -155 31 -140 37 -172 47 -229 30 -176 129 -338
239 -391 106 -51 332 -77 495 -55 104 13 230 66 273 113 18 20 76 152 234 532
46 113 90 219 98 235 55 125 177 430 220 549 l18 50 207 -626 c114 -344 219
-645 233 -668 100 -168 263 -236 498 -208 206 24 357 127 401 272 10 34 35
147 43 198 3 18 22 116 41 218 20 102 38 194 40 205 2 11 8 43 14 71 6 28 13
61 15 75 3 13 23 114 46 224 22 110 43 211 45 225 2 14 11 54 19 90 8 36 17
81 20 100 6 37 81 407 91 450 3 14 7 37 9 52 2 15 8 44 14 65 5 21 12 52 14
68 3 17 10 50 16 75 5 25 12 59 15 75 3 17 8 42 11 56 9 46 43 210 71 334 48
220 39 341 -34 426 -61 71 -173 117 -302 123 -103 4 -213 -47 -264 -124 -30
-45 -24 -23 -172 -710 -160 -742 -221 -1024 -229 -1060 -2 -8 -11 -48 -20 -89
-18 -86 -21 -91 -30 -59 -4 13 -42 133 -85 268 -43 135 -109 340 -146 455 -89
278 -141 379 -241 468 -89 80 -151 95 -376 92 -164 -3 -182 -5 -258 -35 -139
-55 -165 -105 -364 -670 -63 -180 -238 -630 -244 -630 -4 0 -12 28 -19 63 -6
34 -14 73 -17 87 -9 41 -36 173 -40 195 -2 11 -19 99 -39 195 -20 96 -38 184
-40 195 -10 49 -78 382 -81 395 -7 34 -34 167 -39 190 -22 114 -99 492 -106
520 -5 19 -11 49 -13 67 -8 55 -75 179 -126 235 -50 55 -141 108 -211 123 -58
13 -172 12 -237 -1z"/>
</g>
</svg>
