<?xml version="1.0" encoding="iso-8859-1"?>
<!-- Generator: Adobe Illustrator 16.0.0, SVG Export Plug-In . SVG Version: 6.00 Build 0)  -->
<!DOCTYPE svg PUBLIC "-//W3C//DTD SVG 1.1//EN" "http://www.w3.org/Graphics/SVG/1.1/DTD/svg11.dtd">
<svg version="1.1" id="Capa_1" xmlns="http://www.w3.org/2000/svg" xmlns:xlink="http://www.w3.org/1999/xlink" x="0px" y="0px"
	 width="612.284px" height="612.283px" viewBox="0 0 612.284 612.283" style="enable-background:new 0 0 612.284 612.283;"
	 xml:space="preserve">
<g>
	<g>
		<g>
			<path d="M509.432,77.245C453.346,27.433,381.188,0,306.249,0c-87.483,0-170.952,37.486-229,102.847
				C-34.847,229.064-23.364,422.943,102.844,535.035c56.082,49.809,128.24,77.242,203.186,77.248c0.01,0,0.015,0,0.026,0
				c87.466,0,170.931-37.488,228.982-102.851C647.132,383.221,635.646,189.341,509.432,77.245z M488.567,228.95
				c-1.489,7.292-39.215,192.11-41.74,208.457c-1.32,8.553-9.073,36.457-53.239,36.457c-0.003,0,0,0-0.001,0
				c-0.635,0-1.277-0.004-1.923-0.019c-34.989-0.649-43.81-31.037-44.618-34.146l-27.108-81.771
				c-39.636,96.246-40.804,97.707-41.251,98.271c-8.165,10.233-23.593,15.873-43.437,15.873c-9.359,0-19.3-1.32-28.745-3.82
				c-12.021-3.184-21.474-12.361-27.34-26.539c-3.942-9.531-5.004-18.233-5.176-19.877c-1.487-6.91-35.537-165.104-40-184.482
				c-0.491-2.127-1.18-4.725-1.977-7.733c-4.943-18.65-13.216-49.861-1.141-69.314c4.988-8.038,12.913-13.211,23.55-15.375
				c4.37-0.889,8.645-1.339,12.706-1.339c41.154,0,46.918,34.943,47.024,35.298l0.087,0.348l29.549,144.745
				c5.037-13.119,12.579-33.133,15.955-43.935l0.093-0.265c9.588-24.527,11.388-30.743,11.404-30.802l0.114-0.403l0.197-0.379
				c10.471-19.845,27.585-22.581,44.521-22.581c4.797,0,9.684,0.231,14.854,0.473l2.688,0.125
				c27.171,1.242,39.218,35.518,39.718,36.976l17.567,54.814l14.778-68.3c13.382-64.869,14.723-67.651,15.079-68.757
				c2.314-7.173,11.138-21.564,32.665-21.564c5.643,0,11.754,1.175,18.165,3.491c11.007,3.981,21.36,14.448,22.28,30.554
				C494.871,199.446,489.295,226.614,488.567,228.95z"/>
			<path d="M468.861,170.419c-5.535-2-10.729-3.015-15.438-3.015c-16.665,0-24.133,11.183-25.316,16.76
				c-0.262,1.232-2.819,10.191-14.58,67.197l-21.122,97.618l-26.687-83.268c-0.079-0.226-10.768-30.494-32.47-31.485l-2.7-0.127
				c-5.075-0.239-9.866-0.465-14.477-0.465c-17.016,0-29.204,3.018-37.247,17.965c-0.552,1.792-2.999,9.293-11.47,30.969
				c-5.397,17.217-20.396,55.443-21.033,57.066l-4.953,12.609l-34.953-171.209c-3.47-7.726-10.093-29.426-39.291-29.426
				c-3.525,0-7.262,0.398-11.106,1.18c-8.505,1.731-14.503,5.572-18.334,11.744c-10.25,16.512-2.532,45.629,2.079,63.028
				c0.815,3.076,1.52,5.734,2.04,7.988c4.553,19.767,39.719,183.168,40.074,184.816l0.074,0.483
				c0.03,0.33,3.345,33.484,26.605,39.642c8.784,2.326,18.015,3.555,26.693,3.555c16.927,0,30.372-4.59,36.967-12.604
				c2.5-5.054,27.519-65.488,44.011-105.568l4.11-12.232l34.475,104.05c0.257,1.112,6.713,27.571,37.002,28.139
				c0.597,0.01,1.188,0.016,1.774,0.016c25.503,0,42.441-11.088,45.313-29.662c2.593-16.778,40.249-201.2,41.852-209.042
				l0.114-0.438c0.056-0.17,6.373-24.277,5.382-33.872C485.043,181.195,478.767,174.002,468.861,170.419z"/>
		</g>
	</g>
</g>
<g>
</g>
<g>
</g>
<g>
</g>
<g>
</g>
<g>
</g>
<g>
</g>
<g>
</g>
<g>
</g>
<g>
</g>
<g>
</g>
<g>
</g>
<g>
</g>
<g>
</g>
<g>
</g>
<g>
</g>
</svg>
